<svg viewBox="0 0 512 512" xmlns="http://www.w3.org/2000/svg"><path d="m505.12019 19.09375c-1.18945-5.53125-6.65819-11-12.207-12.1875-32.19719-6.90625-57.40619-6.90625-82.50572-6.90625-103.23224 0-165.13838 55.20312-211.35509 128h-104.21466c-16.34763.01562-35.55658 11.875-42.88664 26.48438l-49.43546 98.8125a28.4 28.4 0 0 0 -2.51562 10.70312 24.00867 24.00867 0 0 0 24.00582 24h103.81036l-22.47457 22.46875c-11.36521 11.36133-12.99607 32.25781 0 45.25l50.90421 50.90625c11.15623 11.1875 32.15619 13.15625 45.27726 0l22.47457-22.46875v103.84375a24.00867 24.00867 0 0 0 24.00581 24 28.55934 28.55934 0 0 0 10.707-2.51562l98.72834-49.39063c14.62888-7.29687 26.50776-26.5 26.50776-42.85937v-104.4375c72.59753-46.3125 128.03493-108.40626 128.03493-211.09376.09377-25.20312.09377-50.40624-6.8613-82.60937zm-121.07986 148.90625a40 40 0 1 1 40.00967-40 40.02322 40.02322 0 0 1 -40.00967 40z"/></svg>