<svg xmlns="http://www.w3.org/2000/svg" xmlns:xlink="http://www.w3.org/1999/xlink" viewBox="0 0 705 358"><defs><clipPath id="b"><use clip-rule="evenodd" xlink:href="#a"/></clipPath><path id="a" d="M0 0h705v358H0z"/></defs><g fill="#0AF" fill-rule="evenodd" clip-path="url(#b)"><path d="M511.791 354.197c-4.76 2.296-11.978 3.807-19.202 3.807-20.877 0-29.775-10.512-29.775-34.192 0-24.017 9.251-34.445 30.038-34.445 6.171 0 12.863 1.325 17.528 3.268l-1.053 8.126c-4.58-1.938-10.04-3.089-16.032-3.089-14.712 0-20.967 6.003-20.967 26.056 0 19.429 5.55 25.785 19.998 25.785 4.491 0 8.193-.612 11.446-1.853v-25.965h8.02v32.502zM522 356v-51.864l6.713-.434.708 11.216h.18c3.273-7.535 9.024-11.918 16.182-11.918 1.945 0 3.8.262 5.217.702l-.534 8.409c-1.591-.53-3.351-.702-5.212-.702-8.226 0-14.86 6.917-14.86 18.138V356H522zm33-27.014c0-16.64 7.326-25.986 21.989-25.986 12.696 0 21.011 7.48 21.011 24.47 0 1.341-.09 2.942-.182 4.096h-34.145c.443 13.975 5.632 18.779 17.072 18.779 5.365 0 9.923-1.16 14.481-3.384l.984 7.124c-4.467 2.399-10.01 3.915-16.448 3.915-17.527 0-24.762-9.171-24.762-29.014zm35.22-3.202c-.177-11.214-5.45-15.485-13.14-15.485-9.025 0-13.05 4.984-13.59 15.485h26.73zm12.78 3.202c0-16.64 7.331-25.986 21.989-25.986 12.696 0 21.011 7.48 21.011 24.47 0 1.341-.085 2.942-.182 4.096h-34.145c.443 13.975 5.632 18.779 17.072 18.779 5.365 0 9.923-1.16 14.487-3.384l.978 7.124c-4.467 2.399-10.01 3.915-16.442 3.915C610.24 358 603 348.829 603 328.986zm35.22-3.202c-.177-11.214-5.45-15.485-13.14-15.485-9.025 0-13.05 4.984-13.59 15.485h26.73zM686.68 356v-35.044c0-7.833-4.16-11.124-11.952-11.124-4.52 0-9.83 2.138-12.317 5.96V356H654v-52.84l6.03-.447 1.412 5.604h.26c3.642-4.004 9.39-6.317 15.323-6.317 11.163 0 17.975 6.317 17.975 18.956V356h-8.32zm18.091-254.105C610.326 38.709 487.151.482 352.39.482 217.63.482 94.447 38.709.002 101.895c93.923-31.3 203.73-50.706 352.387-50.706 148.652 0 258.46 19.406 352.382 50.706M298.211 134c-6.95 0-10.513 5.624-11.437 12.516-1.015 7.589-5.017 33.949-5.902 40.643-.536 4.009-.834 8.198-4.724 9.926-3.889 1.717-8.63-.923-12.666-4.358-4.053-3.44-63.888-54.33-63.888-54.33-3.433-3-7.762-4.397-11.883-4.397-9.036 0-17.711 5.602-17.711 19.289v84.867c0 6.61 4.673 10.844 10.242 10.844 6.156 0 10.147-4.082 11.026-10.067 0 0 6.578-40.435 7.39-44.944.936-5.253 1.759-9.363 6.82-10.923 4.583-1.424 8.918 1.228 15.384 6.88 6.364 5.551 60.258 54.156 60.258 54.156 4.126 3.485 7.131 4.881 12.97 4.881 5.293 0 14.91-2.156 14.91-18.32v-84.536c0-7.843-4.859-12.127-10.789-12.127m384.059 90.857c-46.87 10.06-100.493-.69-100.493-33.752 0-24.988 23.241-35.149 41.549-36.624 19.207-1.532 34.223 2.49 41.953 10.502 4.821 4.988 3.488 11.81-5.997 12.354-8.738.545-25.104 1.038-38.736 1.56-7.735.286-11.87 4.41-11.87 9.964 0 4.393 3.33 9.453 12.225 9.493 12.754.073 45.16.263 61.245.308 10.611.028 15.854-5.902 15.854-18.087 0-19.3-17.548-48.575-68.868-48.575-46.5 0-80.132 23.081-80.132 60.844 0 53.54 79.007 69.878 136.904 49.983 5.48-1.879 10.453-5.801 8.867-11.922-1.396-5.43-5.835-7.479-12.501-6.048m-542.989 0c-46.87 10.06-100.498-.69-100.498-33.752 0-24.988 23.236-35.149 41.554-36.624 19.19-1.532 34.206 2.49 41.948 10.502 4.827 4.988 3.476 11.81-5.992 12.354-8.737.545-25.11 1.038-38.741 1.56-7.742.286-11.871 4.41-11.871 9.964 0 4.393 3.32 9.453 12.214 9.493 12.766.073 45.172.263 61.256.308 10.611.028 15.849-5.902 15.849-18.087 0-19.3-17.542-48.575-68.863-48.575C39.638 132 6 155.081 6 192.844c0 53.54 79.012 69.878 136.898 49.983 5.491-1.879 10.465-5.801 8.878-11.922-1.401-5.43-5.834-7.479-12.495-6.048m362.72-52.061c1.008 29.28 3.761 53.578 4.528 62.077.996 10.986 6.643 14.127 12.319 14.127 5.428 0 11.199-2.865 12.2-14.015.834-9.4 3.6-38.37 4.948-67.024.078-1.497-.974-2.139-2.144-1.919l-30.345 4.947c-.896.197-1.54.93-1.506 1.807M518.927 132c-14.006 0-18.086 10.783-17.922 17.398.033 1.23.163 4.628.365 8.857.034.963.918 1.86 2.088 1.733l31.843-5.087c1.013-.2 1.497-.925 1.547-1.733.074-1.461.124-2.978.147-3.681.174-6.394-3.99-17.487-18.068-17.487m-46.632 46.54c-10.6 0-43.287.258-64.228.308-10.15.04-12.678 5.465-12.678 9.987 0 3.91 2.713 8.988 12.19 9.482 14.436.757 32.787 1.616 41.258 2.042 11.42.59 11.566 6.447 7.707 11.468-7.741 10.071-26.592 16.652-46.146 16.652-25.552 0-53.678-14.509-53.678-37.534 0-21.595 24.064-45.384 95.594-35.353 6.28.881 12.47-.246 14.015-6.048 1.64-6.171-2.382-10.144-10.499-12.287-16.205-4.264-30.978-5.257-45.095-5.257-48.14 0-86.735 22.947-86.735 60.027C324 231.621 362.461 251 410.393 251 463.936 251 490 221.898 490 196.437c0-12.949-6.589-17.897-17.705-17.897"/></g></svg>